<svg width="30" height="30" viewBox="0 0 30 30" fill="none" xmlns="http://www.w3.org/2000/svg">
<g clip-path="url(#clip0_1_2655)">
<path d="M25.3125 14.0625H15.9375V4.6875C15.9375 4.43886 15.8387 4.2004 15.6629 4.02459C15.4871 3.84877 15.2486 3.75 15 3.75C14.7514 3.75 14.5129 3.84877 14.3371 4.02459C14.1613 4.2004 14.0625 4.43886 14.0625 4.6875V14.0625H4.6875C4.43886 14.0625 4.2004 14.1613 4.02459 14.3371C3.84877 14.5129 3.75 14.7514 3.75 15C3.75 15.2486 3.84877 15.4871 4.02459 15.6629C4.2004 15.8387 4.43886 15.9375 4.6875 15.9375H14.0625V25.3125C14.0625 25.5611 14.1613 25.7996 14.3371 25.9754C14.5129 26.1512 14.7514 26.25 15 26.25C15.2486 26.25 15.4871 26.1512 15.6629 25.9754C15.8387 25.7996 15.9375 25.5611 15.9375 25.3125V15.9375H25.3125C25.5611 15.9375 25.7996 15.8387 25.9754 15.6629C26.1512 15.4871 26.25 15.2486 26.25 15C26.25 14.7514 26.1512 14.5129 25.9754 14.3371C25.7996 14.1613 25.5611 14.0625 25.3125 14.0625Z" fill="url(#paint0_linear_1_2655)"/>
</g>
<defs>
<linearGradient id="paint0_linear_1_2655" x1="15" y1="3.75" x2="15" y2="26.25" gradientUnits="userSpaceOnUse">
<stop stop-color="#549994"/>
<stop offset="1" stop-color="#408782"/>
</linearGradient>
<clipPath id="clip0_1_2655">
<rect width="30" height="30" fill="white"/>
</clipPath>
</defs>
</svg>
