<svg width="24" height="24" viewBox="0 0 24 24" fill="none" xmlns="http://www.w3.org/2000/svg">
<g clip-path="url(#clip0_1271_1481)">
<path d="M12 23.6667C12.7736 23.6667 13.5155 23.3594 14.0624 22.8124C14.6094 22.2654 14.9167 21.5235 14.9167 20.75H9.08337C9.08337 21.5235 9.39066 22.2654 9.93765 22.8124C10.4846 23.3594 11.2265 23.6667 12 23.6667Z" fill="white"/>
<path fill-rule="evenodd" clip-rule="evenodd" d="M12.0001 3.13042L10.8378 3.36521C9.5194 3.63384 8.33431 4.34974 7.48311 5.39175C6.63192 6.43375 6.16689 7.73786 6.16675 9.08334C6.16675 9.99917 5.97133 12.2873 5.49737 14.5404C5.26404 15.659 4.94904 16.8242 4.5305 17.8333H19.4697C19.0511 16.8242 18.7376 15.6604 18.5028 14.5404C18.0288 12.2873 17.8334 9.99917 17.8334 9.08334C17.8329 7.73811 17.3678 6.43435 16.5166 5.39264C15.6654 4.35093 14.4805 3.63525 13.1624 3.36667L12.0001 3.12896V3.13042ZM21.0709 17.8333C21.3961 18.4852 21.7724 19.0015 22.2084 19.2917H1.79175C2.22779 19.0015 2.60404 18.4852 2.92925 17.8333C4.24175 15.2083 4.70841 10.3667 4.70841 9.08334C4.70841 5.55417 7.21675 2.60834 10.549 1.93605C10.5287 1.73327 10.5511 1.52848 10.6147 1.33488C10.6784 1.14128 10.7819 0.963177 10.9186 0.812047C11.0553 0.660918 11.2222 0.540121 11.4085 0.457449C11.5948 0.374776 11.7963 0.332062 12.0001 0.332062C12.2039 0.332062 12.4054 0.374776 12.5917 0.457449C12.778 0.540121 12.9448 0.660918 13.0815 0.812047C13.2183 0.963177 13.3218 1.14128 13.3854 1.33488C13.4491 1.52848 13.4715 1.73327 13.4511 1.93605C15.0994 2.27132 16.5813 3.16595 17.6456 4.46844C18.71 5.77094 19.2915 7.40126 19.2917 9.08334C19.2917 10.3667 19.7584 15.2083 21.0709 17.8333Z" fill="white"/>
<circle cx="17.8334" cy="6.16667" r="4.16667" fill="#FFAB7B"/>
</g>
<defs>
<clipPath id="clip0_1271_1481">
<rect width="23.3333" height="23.3333" fill="white" transform="translate(0.333374 0.333344)"/>
</clipPath>
</defs>
</svg>
