<svg width="50" height="50" viewBox="0 0 50 50" fill="none" xmlns="http://www.w3.org/2000/svg">
<g id="check-circle-fill 1" clip-path="url(#clip0_1_3308)">
<path id="Vector" d="M25 4.6875C20.9826 4.6875 17.0553 5.87881 13.715 8.11077C10.3746 10.3427 7.7711 13.5151 6.23369 17.2267C4.69629 20.9384 4.29403 25.0225 5.07779 28.9628C5.86156 32.903 7.79613 36.5224 10.6369 39.3631C13.4776 42.2039 17.097 44.1384 21.0372 44.9222C24.9775 45.706 29.0616 45.3037 32.7732 43.7663C36.4849 42.2289 39.6572 39.6254 41.8892 36.285C44.1212 32.9446 45.3125 29.0174 45.3125 25C45.3022 19.616 43.1588 14.4554 39.3517 10.6483C35.5446 6.8412 30.384 4.69782 25 4.6875ZM34.668 21.4453L23.2226 32.3828C22.9268 32.6612 22.5351 32.815 22.1289 32.8125C21.9303 32.8153 21.7332 32.7788 21.5488 32.7051C21.3644 32.6313 21.1965 32.5218 21.0547 32.3828L15.332 26.9141C15.1733 26.7756 15.0442 26.6064 14.9525 26.4168C14.8608 26.2272 14.8084 26.0209 14.7985 25.8105C14.7885 25.6001 14.8212 25.3899 14.8946 25.1924C14.968 24.995 15.0805 24.8144 15.2255 24.6615C15.3704 24.5087 15.5447 24.3867 15.738 24.303C15.9313 24.2192 16.1395 24.1754 16.3502 24.1742C16.5608 24.173 16.7695 24.2144 16.9638 24.2959C17.158 24.3774 17.3338 24.4973 17.4805 24.6484L22.1289 29.082L32.5195 19.1797C32.8233 18.9146 33.2178 18.7773 33.6206 18.7963C34.0233 18.8154 34.4031 18.9894 34.6805 19.2819C34.958 19.5745 35.1115 19.963 35.1092 20.3661C35.1069 20.7693 34.9488 21.156 34.668 21.4453Z" fill="#438883"/>
</g>
<defs>
<clipPath id="clip0_1_3308">
<rect width="50" height="50" fill="white"/>
</clipPath>
</defs>
</svg>
