<svg width="20" height="20" viewBox="0 0 20 20" fill="none" xmlns="http://www.w3.org/2000/svg">
<g id="copy-simple-fill 1" clip-path="url(#clip0_1_3326)">
<path id="Vector" d="M16.875 2.5H5.625C5.45924 2.5 5.30027 2.56585 5.18306 2.68306C5.06585 2.80027 5 2.95924 5 3.125C5 3.29076 5.06585 3.44973 5.18306 3.56694C5.30027 3.68415 5.45924 3.75 5.625 3.75H16.25V14.375C16.25 14.5408 16.3158 14.6997 16.4331 14.8169C16.5503 14.9342 16.7092 15 16.875 15C17.0408 15 17.1997 14.9342 17.3169 14.8169C17.4342 14.6997 17.5 14.5408 17.5 14.375V3.125C17.5 2.95924 17.4342 2.80027 17.3169 2.68306C17.1997 2.56585 17.0408 2.5 16.875 2.5Z" fill="#438883"/>
<path id="Vector_2" d="M14.375 5H3.125C2.77982 5 2.5 5.27982 2.5 5.625V16.875C2.5 17.2202 2.77982 17.5 3.125 17.5H14.375C14.7202 17.5 15 17.2202 15 16.875V5.625C15 5.27982 14.7202 5 14.375 5Z" fill="#438883"/>
</g>
<defs>
<clipPath id="clip0_1_3326">
<rect width="20" height="20" fill="white"/>
</clipPath>
</defs>
</svg>
