<svg width="22" height="24" viewBox="0 0 22 24" fill="none" xmlns="http://www.w3.org/2000/svg">
<path d="M6.67167 13.505C6.56232 13.6135 6.47552 13.7425 6.41629 13.8847C6.35706 14.0268 6.32657 14.1793 6.32657 14.3333C6.32657 14.4874 6.35706 14.6399 6.41629 14.782C6.47552 14.9242 6.56232 15.0532 6.67167 15.1617L10.1717 18.6617C10.2801 18.771 10.4092 18.8578 10.5513 18.9171C10.6935 18.9763 10.846 19.0068 11 19.0068C11.154 19.0068 11.3065 18.9763 11.4487 18.9171C11.5908 18.8578 11.7199 18.771 11.8283 18.6617L15.3283 15.1617C15.548 14.942 15.6714 14.644 15.6714 14.3333C15.6714 14.0227 15.548 13.7247 15.3283 13.505C15.1086 13.2853 14.8107 13.1619 14.5 13.1619C14.1893 13.1619 13.8914 13.2853 13.6717 13.505L12.1667 15.0217V1.50001C12.1667 1.19059 12.0437 0.893845 11.825 0.675052C11.6062 0.45626 11.3094 0.333344 11 0.333344C10.6906 0.333344 10.3938 0.45626 10.175 0.675052C9.95625 0.893845 9.83333 1.19059 9.83333 1.50001V15.0217L8.32833 13.505C8.21988 13.3957 8.09084 13.3089 7.94867 13.2496C7.8065 13.1904 7.65401 13.1599 7.5 13.1599C7.34599 13.1599 7.1935 13.1904 7.05133 13.2496C6.90916 13.3089 6.78012 13.3957 6.67167 13.505ZM18 8.50001H15.6667C15.3572 8.50001 15.0605 8.62293 14.8417 8.84172C14.6229 9.06051 14.5 9.35726 14.5 9.66668C14.5 9.9761 14.6229 10.2728 14.8417 10.4916C15.0605 10.7104 15.3572 10.8333 15.6667 10.8333H18C18.3094 10.8333 18.6062 10.9563 18.825 11.1751C19.0438 11.3938 19.1667 11.6906 19.1667 12V20.1667C19.1667 20.4761 19.0438 20.7728 18.825 20.9916C18.6062 21.2104 18.3094 21.3333 18 21.3333H4C3.69058 21.3333 3.39383 21.2104 3.17504 20.9916C2.95625 20.7728 2.83333 20.4761 2.83333 20.1667V12C2.83333 11.6906 2.95625 11.3938 3.17504 11.1751C3.39383 10.9563 3.69058 10.8333 4 10.8333H6.33333C6.64275 10.8333 6.9395 10.7104 7.15829 10.4916C7.37708 10.2728 7.5 9.9761 7.5 9.66668C7.5 9.35726 7.37708 9.06051 7.15829 8.84172C6.9395 8.62293 6.64275 8.50001 6.33333 8.50001H4C3.07174 8.50001 2.1815 8.86876 1.52513 9.52514C0.868749 10.1815 0.5 11.0718 0.5 12V20.1667C0.5 21.0949 0.868749 21.9852 1.52513 22.6416C2.1815 23.2979 3.07174 23.6667 4 23.6667H18C18.9283 23.6667 19.8185 23.2979 20.4749 22.6416C21.1313 21.9852 21.5 21.0949 21.5 20.1667V12C21.5 11.0718 21.1313 10.1815 20.4749 9.52514C19.8185 8.86876 18.9283 8.50001 18 8.50001Z" fill="black"/>
</svg>
