<svg width="28" height="28" viewBox="0 0 28 28" fill="none" xmlns="http://www.w3.org/2000/svg">
<g clip-path="url(#clip0_1_2661)">
<path d="M24.9047 5.2828L19.1734 25.6156C19.0778 25.9599 18.8785 26.2664 18.6026 26.4934C18.3267 26.7204 17.9875 26.8569 17.6312 26.8844H17.4781C17.1485 26.8836 16.8258 26.7898 16.5471 26.6137C16.2685 26.4376 16.0452 26.1864 15.9031 25.8891L11.9984 17.6422C11.9601 17.5594 11.9479 17.4668 11.9636 17.3769C11.9792 17.287 12.0219 17.2041 12.0859 17.1391L17.6969 11.5281C17.7847 11.4485 17.8554 11.3519 17.9048 11.2442C17.9542 11.1364 17.9811 11.0197 17.9841 10.9012C17.987 10.7827 17.9658 10.6649 17.9218 10.5548C17.8778 10.4448 17.8119 10.3448 17.7281 10.261C17.6442 10.1772 17.5443 10.1113 17.4342 10.0672C17.3241 10.0232 17.2063 10.002 17.0878 10.005C16.9693 10.0079 16.8526 10.0348 16.7449 10.0842C16.6371 10.1336 16.5405 10.2043 16.4609 10.2922L10.85 15.9141C10.785 15.9781 10.702 16.0208 10.6121 16.0364C10.5222 16.052 10.4297 16.0399 10.3469 16.0016L2.14373 12.1187C1.82266 11.9671 1.55311 11.7246 1.36843 11.4214C1.18375 11.1181 1.09204 10.7673 1.10466 10.4125C1.12402 10.0471 1.25812 9.69718 1.48787 9.41245C1.71763 9.12771 2.03133 8.92268 2.38435 8.82655L22.7609 3.08436C23.1173 2.98258 23.4968 2.99659 23.8447 3.12436C24.1927 3.25213 24.491 3.48706 24.6969 3.7953C24.835 4.01435 24.9249 4.26025 24.9607 4.5167C24.9966 4.77316 24.9774 5.0343 24.9047 5.2828Z" fill="url(#paint0_linear_1_2661)"/>
</g>
<defs>
<linearGradient id="paint0_linear_1_2661" x1="13.0409" y1="3.01709" x2="13.0409" y2="26.8844" gradientUnits="userSpaceOnUse">
<stop stop-color="#549994"/>
<stop offset="1" stop-color="#408782"/>
</linearGradient>
<clipPath id="clip0_1_2661">
<rect width="28" height="28" fill="white"/>
</clipPath>
</defs>
</svg>
