<svg width="24" height="24" viewBox="0 0 24 24" fill="none" xmlns="http://www.w3.org/2000/svg">
<path fill-rule="evenodd" clip-rule="evenodd" d="M12 21.6C17.302 21.6 21.6 17.3019 21.6 12C21.6 6.69807 17.302 2.4 12 2.4C6.69809 2.4 2.40002 6.69807 2.40002 12C2.40002 17.3019 6.69809 21.6 12 21.6ZM13.2 8.4C13.2 7.73726 12.6628 7.2 12 7.2C11.3373 7.2 10.8 7.73726 10.8 8.4V10.8H8.40002C7.73728 10.8 7.20002 11.3373 7.20002 12C7.20002 12.6627 7.73728 13.2 8.40002 13.2H10.8V15.6C10.8 16.2627 11.3373 16.8 12 16.8C12.6628 16.8 13.2 16.2627 13.2 15.6V13.2H15.6C16.2628 13.2 16.8 12.6627 16.8 12C16.8 11.3373 16.2628 10.8 15.6 10.8H13.2V8.4Z" fill="#666666"/>
</svg>
