<svg width="30" height="30" viewBox="0 0 30 30" fill="none" xmlns="http://www.w3.org/2000/svg">
<g clip-path="url(#clip0_1_2644)">
<path d="M12.1875 4.6875H6.5625C5.52697 4.6875 4.6875 5.52697 4.6875 6.5625V12.1875C4.6875 13.223 5.52697 14.0625 6.5625 14.0625H12.1875C13.223 14.0625 14.0625 13.223 14.0625 12.1875V6.5625C14.0625 5.52697 13.223 4.6875 12.1875 4.6875Z" fill="url(#paint0_linear_1_2644)"/>
<path d="M12.1875 15.9375H6.5625C5.52697 15.9375 4.6875 16.777 4.6875 17.8125V23.4375C4.6875 24.473 5.52697 25.3125 6.5625 25.3125H12.1875C13.223 25.3125 14.0625 24.473 14.0625 23.4375V17.8125C14.0625 16.777 13.223 15.9375 12.1875 15.9375Z" fill="url(#paint1_linear_1_2644)"/>
<path d="M23.4375 4.6875H17.8125C16.777 4.6875 15.9375 5.52697 15.9375 6.5625V12.1875C15.9375 13.223 16.777 14.0625 17.8125 14.0625H23.4375C24.473 14.0625 25.3125 13.223 25.3125 12.1875V6.5625C25.3125 5.52697 24.473 4.6875 23.4375 4.6875Z" fill="url(#paint2_linear_1_2644)"/>
<path d="M16.875 21.5625C17.1236 21.5625 17.3621 21.4637 17.5379 21.2879C17.7137 21.1121 17.8125 20.8736 17.8125 20.625V16.875C17.8125 16.6264 17.7137 16.3879 17.5379 16.2121C17.3621 16.0363 17.1236 15.9375 16.875 15.9375C16.6264 15.9375 16.3879 16.0363 16.2121 16.2121C16.0363 16.3879 15.9375 16.6264 15.9375 16.875V20.625C15.9375 20.8736 16.0363 21.1121 16.2121 21.2879C16.3879 21.4637 16.6264 21.5625 16.875 21.5625Z" fill="url(#paint3_linear_1_2644)"/>
<path d="M24.375 17.8125H21.5625V16.875C21.5625 16.6264 21.4637 16.3879 21.2879 16.2121C21.1121 16.0363 20.8736 15.9375 20.625 15.9375C20.3764 15.9375 20.1379 16.0363 19.9621 16.2121C19.7863 16.3879 19.6875 16.6264 19.6875 16.875V23.4375H16.875C16.6264 23.4375 16.3879 23.5363 16.2121 23.7121C16.0363 23.8879 15.9375 24.1264 15.9375 24.375C15.9375 24.6236 16.0363 24.8621 16.2121 25.0379C16.3879 25.2137 16.6264 25.3125 16.875 25.3125H20.625C20.8736 25.3125 21.1121 25.2137 21.2879 25.0379C21.4637 24.8621 21.5625 24.6236 21.5625 24.375V19.6875H24.375C24.6236 19.6875 24.8621 19.5887 25.0379 19.4129C25.2137 19.2371 25.3125 18.9986 25.3125 18.75C25.3125 18.5014 25.2137 18.2629 25.0379 18.0871C24.8621 17.9113 24.6236 17.8125 24.375 17.8125Z" fill="url(#paint4_linear_1_2644)"/>
<path d="M24.375 21.5625C24.1264 21.5625 23.8879 21.6613 23.7121 21.8371C23.5363 22.0129 23.4375 22.2514 23.4375 22.5V24.375C23.4375 24.6236 23.5363 24.8621 23.7121 25.0379C23.8879 25.2137 24.1264 25.3125 24.375 25.3125C24.6236 25.3125 24.8621 25.2137 25.0379 25.0379C25.2137 24.8621 25.3125 24.6236 25.3125 24.375V22.5C25.3125 22.2514 25.2137 22.0129 25.0379 21.8371C24.8621 21.6613 24.6236 21.5625 24.375 21.5625Z" fill="url(#paint5_linear_1_2644)"/>
</g>
<defs>
<linearGradient id="paint0_linear_1_2644" x1="9.375" y1="4.6875" x2="9.375" y2="14.0625" gradientUnits="userSpaceOnUse">
<stop stop-color="#549994"/>
<stop offset="1" stop-color="#408782"/>
</linearGradient>
<linearGradient id="paint1_linear_1_2644" x1="9.375" y1="15.9375" x2="9.375" y2="25.3125" gradientUnits="userSpaceOnUse">
<stop stop-color="#549994"/>
<stop offset="1" stop-color="#408782"/>
</linearGradient>
<linearGradient id="paint2_linear_1_2644" x1="20.625" y1="4.6875" x2="20.625" y2="14.0625" gradientUnits="userSpaceOnUse">
<stop stop-color="#549994"/>
<stop offset="1" stop-color="#408782"/>
</linearGradient>
<linearGradient id="paint3_linear_1_2644" x1="16.875" y1="15.9375" x2="16.875" y2="21.5625" gradientUnits="userSpaceOnUse">
<stop stop-color="#549994"/>
<stop offset="1" stop-color="#408782"/>
</linearGradient>
<linearGradient id="paint4_linear_1_2644" x1="20.625" y1="15.9375" x2="20.625" y2="25.3125" gradientUnits="userSpaceOnUse">
<stop stop-color="#549994"/>
<stop offset="1" stop-color="#408782"/>
</linearGradient>
<linearGradient id="paint5_linear_1_2644" x1="24.375" y1="21.5625" x2="24.375" y2="25.3125" gradientUnits="userSpaceOnUse">
<stop stop-color="#549994"/>
<stop offset="1" stop-color="#408782"/>
</linearGradient>
<clipPath id="clip0_1_2644">
<rect width="30" height="30" fill="white"/>
</clipPath>
</defs>
</svg>
